<?xml version="1.0" encoding="utf-8"?>
<!-- Generator: Adobe Illustrator 22.1.0, SVG Export Plug-In . SVG Version: 6.00 Build 0)  -->
<svg version="1.1" id="Layer_1" xmlns="http://www.w3.org/2000/svg" xmlns:xlink="http://www.w3.org/1999/xlink" x="0px" y="0px"
	 viewBox="0 0 1920 1080" style="enable-background:new 0 0 1920 1080;" xml:space="preserve">
<g>
	<g>
		<g>
			<path d="M665.3,320.3h-35.9v23.9h33.6v18h-33.6v47.1h-20.8V302.3h56.7V320.3z"/>
		</g>
		<g>
			<path d="M720.1,302.3v106.9h-20.8V302.3H720.1z"/>
		</g>
		<g>
			<path d="M760.4,409.2V302.3h14.4l65.1,71.3v-71.3h20.8v106.9h-14.4l-65.1-71.5v71.5H760.4z"/>
		</g>
		<g>
			<path d="M960.3,320.3h-38.5v23.9h36.9v18h-36.9v29.2h38.5v17.9H901V302.3h59.3V320.3z"/>
		</g>
		<g>
			<path d="M665.3,503.3h-35.9v23.9h33.6v18h-33.6v47.1h-20.8V485.4h56.7V503.3z"/>
		</g>
		<g>
			<path d="M750.7,569.8h-43.1l-9.5,22.4h-22.6l46-106.9h16.3l44.7,106.9h-22.4L750.7,569.8z M744.6,552.8l-15.2-38.5l-15.2,38.5
				H744.6z"/>
		</g>
		<g>
			<path d="M860.2,509.7c-6.3-8.3-13.6-9.1-17.5-9.1c-11.2,0-14.7,7-14.7,12.5c0,2.6,0.8,5,3.4,7.2c2.6,2.4,6.1,3.7,12.8,6.1
				c8.3,2.9,16.2,5.8,21.6,10.7c4.8,4.3,9.1,11.5,9.1,22.4c0,20.8-15.1,35.1-37.2,35.1c-19.7,0-31.2-12-36.9-20.2l13.6-13
				c5.1,10.4,14.9,14.3,22.4,14.3c9.5,0,16.5-5.8,16.5-14.7c0-3.8-1.3-6.9-4.2-9.6c-4-3.7-10.4-5.8-16.5-7.8
				c-5.6-1.9-12.3-4.5-17.8-9.3c-3.5-3-8.5-9-8.5-19.9c0-15.7,10.6-31.4,34.3-31.4c6.7,0,19.4,1.3,30.3,12.5L860.2,509.7z"/>
		</g>
		<g>
			<path d="M930,526.7h45.2v-41.3H996v106.9h-20.8v-47.6H930v47.6h-20.8V485.4H930V526.7z"/>
		</g>
		<g>
			<path d="M1057.2,485.4v106.9h-20.8V485.4H1057.2z"/>
		</g>
		<g>
			<path d="M1206.5,538.9c0,32.5-23.4,55.8-57,55.8s-57-23.2-57-55.8c0-32.5,23.4-55.9,57-55.9S1206.5,506.4,1206.5,538.9z
				 M1185,538.9c0-21.6-14.7-37-35.6-37s-35.6,15.4-35.6,37c0,21.6,14.7,36.9,35.6,36.9S1185,560.5,1185,538.9z"/>
		</g>
		<g>
			<path d="M1241.7,592.2V485.4h14.4l65.1,71.3v-71.3h20.8v106.9h-14.4l-65.1-71.5v71.5H1241.7z"/>
		</g>
		<g>
			<path d="M686.1,771.4c-6.4,3.4-14.9,6.2-26.4,6.2c-18.8,0-30.1-6.4-39.1-14.9c-12.3-11.9-17.1-25.2-17.1-40.9
				c0-19.4,8-33.3,17.1-41.8c10.7-10.1,24-14.1,39.3-14.1c7.5,0,16.5,1.3,26.3,6.6v24.4c-9.8-11.2-22-12-25.8-12
				c-21.5,0-35.4,17.6-35.4,37.3c0,23.7,18.3,36.5,36.2,36.5c9.9,0,18.7-4.3,25-11.7V771.4z"/>
		</g>
		<g>
			<path d="M830.3,721.9c0,32.5-23.4,55.8-57,55.8s-57-23.2-57-55.8c0-32.5,23.4-55.9,57-55.9S830.3,689.4,830.3,721.9z
				 M808.8,721.9c0-21.6-14.7-37-35.6-37s-35.6,15.4-35.6,37c0,21.6,14.7,36.9,35.6,36.9S808.8,743.5,808.8,721.9z"/>
		</g>
		<g>
			<path d="M865.5,775.3V668.4h14.4l65.1,71.3v-71.3h20.8v106.9h-14.4l-65.1-71.5v71.5H865.5z"/>
		</g>
		<g>
			<path d="M1058.6,692.8c-6.3-8.3-13.6-9.1-17.5-9.1c-11.2,0-14.7,7-14.7,12.5c0,2.6,0.8,5,3.4,7.2c2.6,2.4,6.1,3.7,12.8,6.1
				c8.3,2.9,16.2,5.8,21.6,10.7c4.8,4.3,9.1,11.5,9.1,22.4c0,20.8-15.1,35.1-37.2,35.1c-19.7,0-31.3-12-36.9-20.2l13.6-13
				c5.1,10.4,14.9,14.3,22.4,14.3c9.5,0,16.5-5.8,16.5-14.7c0-3.8-1.3-6.9-4.2-9.6c-4-3.7-10.4-5.8-16.5-7.8
				c-5.6-1.9-12.3-4.5-17.8-9.3c-3.5-3-8.5-9-8.5-19.9c0-15.7,10.6-31.4,34.3-31.4c6.7,0,19.4,1.3,30.3,12.5L1058.6,692.8z"/>
		</g>
		<g>
			<path d="M1128.5,668.4v67.1c0,8.2,2.7,13.1,5.1,15.9c3,3.7,8.7,7.4,17,7.4c8.3,0,13.9-3.7,17-7.4c2.4-2.7,5.1-7.7,5.1-15.9v-67.1
				h20.8v65.4c0,10.1-1.6,20.4-8,28.5c-7.7,10.1-21.1,15.4-34.9,15.4c-13.8,0-27.2-5.3-34.9-15.4c-6.4-8.2-8-18.4-8-28.5v-65.4
				H1128.5z"/>
		</g>
		<g>
			<path d="M1254.7,668.4v88.9h33v17.9h-53.8V668.4H1254.7z"/>
		</g>
		<g>
			<path d="M1348.8,686.3v88.9H1328v-88.9h-24v-17.9h68.9v17.9H1348.8z"/>
		</g>
		<g>
			<path d="M1422.8,668.4v106.9H1402V668.4H1422.8z"/>
		</g>
		<g>
			<path d="M1463.2,775.3V668.4h14.4l65.1,71.3v-71.3h20.8v106.9h-14.4l-65.1-71.5v71.5H1463.2z"/>
		</g>
		<g>
			<path d="M1658,718.1h49v1.3c0,7.2-1,29.6-15.7,44.2c-11.1,11.1-24.7,14.1-38,14.1c-13.3,0-27.1-2.7-38.8-14.4
				c-3.7-3.7-15.9-17.1-15.9-41.2c0-20.7,9.3-33.3,15.7-39.7c8-8.2,21.5-16.3,42.1-16.3c8,0,16.5,1.3,24.7,5.6
				c6.9,3.5,14.4,9.9,20,19.6l-18.1,9.8c-3.7-7.2-9.1-10.9-12.5-12.7c-4.5-2.2-10.1-3.4-15.1-3.4c-8.5,0-18.1,3-24.7,9.5
				c-6.1,5.9-10.7,16.2-10.7,28.2c0,14.3,6.1,22.8,10.6,27.1c4.8,4.6,12.3,9.1,23.7,9.1c7.1,0,15.1-1.9,21-6.4
				c4.2-3.2,8.3-8.7,10.1-16.3H1658V718.1z"/>
		</g>
	</g>
	<path d="M527.4,456.8V330.6H213v1.3v124.8v292.6h8.6c64.8,0,117.5-52.7,117.5-117.5v-1h188.2V504.7H339.1v-47.9H527.4z
		 M510.2,439.5h-171v-91.7h171V439.5z M321.9,349.2v90.3h-91.7v-90.3H321.9z M321.9,631.9c0,52.4-40.4,95.5-91.7,99.9v-101h91.7
		V631.9z M510.2,521.9v91.7h-171v-91.7H510.2z M321.9,613.6h-91.7V456.8h91.7V613.6z"/>
</g>
</svg>
